<svg width="98" height="16" viewBox="0 0 98 16" fill="none" xmlns="http://www.w3.org/2000/svg">
<path d="M10.6896 13.452C10.4376 13.74 10.0836 14.016 9.62761 14.28C9.18361 14.544 8.66761 14.76 8.07961 14.928C7.50361 15.096 6.88561 15.18 6.22561 15.18C5.09761 15.18 4.07761 14.916 3.16561 14.388C2.26561 13.848 1.54561 13.092 1.00561 12.12C0.477609 11.148 0.213609 10.008 0.213609 8.7C0.213609 7.776 0.375609 6.924 0.699609 6.144C1.02361 5.364 1.47361 4.686 2.04961 4.11C2.62561 3.534 3.28561 3.09 4.02961 2.778C4.77361 2.454 5.55961 2.292 6.38761 2.292C7.07161 2.292 7.70761 2.4 8.29561 2.616C8.89561 2.82 9.41761 3.09 9.86161 3.426C10.3176 3.75 10.6716 4.098 10.9236 4.47L9.62761 5.82C9.18361 5.364 8.69161 4.986 8.15161 4.686C7.61161 4.386 7.02361 4.236 6.38761 4.236C5.66761 4.236 4.98361 4.416 4.33561 4.776C3.69961 5.136 3.18361 5.652 2.78761 6.324C2.39161 6.984 2.19361 7.776 2.19361 8.7C2.19361 9.708 2.39161 10.548 2.78761 11.22C3.19561 11.892 3.72961 12.396 4.38961 12.732C5.06161 13.056 5.78161 13.218 6.54961 13.218C7.25761 13.218 7.88161 13.08 8.42161 12.804C8.96161 12.516 9.39361 12.204 9.71761 11.868L10.6896 13.452ZM21.9164 10.266C21.9164 11.226 21.7004 12.078 21.2684 12.822C20.8484 13.554 20.2724 14.13 19.5404 14.55C18.8204 14.97 18.0104 15.18 17.1104 15.18C16.2104 15.18 15.3944 14.97 14.6624 14.55C13.9304 14.13 13.3484 13.554 12.9164 12.822C12.4964 12.078 12.2864 11.226 12.2864 10.266C12.2864 9.306 12.4964 8.46 12.9164 7.728C13.3484 6.984 13.9304 6.402 14.6624 5.982C15.3944 5.562 16.2104 5.352 17.1104 5.352C18.0104 5.352 18.8204 5.562 19.5404 5.982C20.2724 6.402 20.8484 6.984 21.2684 7.728C21.7004 8.46 21.9164 9.306 21.9164 10.266ZM20.0264 10.266C20.0384 9.63 19.9124 9.072 19.6484 8.592C19.3964 8.1 19.0484 7.722 18.6044 7.458C18.1604 7.182 17.6624 7.044 17.1104 7.044C16.5584 7.044 16.0544 7.182 15.5984 7.458C15.1544 7.722 14.8004 8.1 14.5364 8.592C14.2844 9.072 14.1644 9.63 14.1764 10.266C14.1644 10.89 14.2844 11.448 14.5364 11.94C14.8004 12.42 15.1544 12.798 15.5984 13.074C16.0544 13.35 16.5584 13.488 17.1104 13.488C17.6624 13.488 18.1604 13.35 18.6044 13.074C19.0484 12.798 19.3964 12.42 19.6484 11.94C19.9124 11.448 20.0384 10.89 20.0264 10.266ZM32.7926 1.68V15H30.9386V13.668C30.6626 14.04 30.2546 14.388 29.7146 14.712C29.1746 15.024 28.5626 15.18 27.8786 15.18C27.0266 15.18 26.2586 14.97 25.5746 14.55C24.8906 14.13 24.3506 13.548 23.9546 12.804C23.5586 12.06 23.3606 11.214 23.3606 10.266C23.3606 9.306 23.5586 8.46 23.9546 7.728C24.3506 6.984 24.8846 6.402 25.5566 5.982C26.2286 5.562 26.9846 5.352 27.8246 5.352C28.4966 5.352 29.1026 5.49 29.6426 5.766C30.1946 6.042 30.6266 6.366 30.9386 6.738V1.68H32.7926ZM28.1306 13.578C28.7066 13.578 29.2106 13.434 29.6426 13.146C30.0746 12.858 30.4106 12.462 30.6506 11.958C30.8906 11.454 31.0106 10.89 31.0106 10.266C31.0106 9.63 30.8906 9.066 30.6506 8.574C30.4106 8.07 30.0746 7.674 29.6426 7.386C29.2106 7.098 28.7066 6.954 28.1306 6.954C27.5666 6.954 27.0686 7.098 26.6366 7.386C26.2046 7.674 25.8626 8.07 25.6106 8.574C25.3706 9.066 25.2506 9.63 25.2506 10.266C25.2506 10.89 25.3706 11.454 25.6106 11.958C25.8626 12.462 26.2046 12.858 26.6366 13.146C27.0686 13.434 27.5666 13.578 28.1306 13.578ZM43.4628 13.758H43.4448C43.0608 14.13 42.5328 14.46 41.8608 14.748C41.1888 15.036 40.4868 15.18 39.7548 15.18C38.7708 15.18 37.9008 14.976 37.1448 14.568C36.4008 14.148 35.8188 13.578 35.3988 12.858C34.9788 12.126 34.7688 11.298 34.7688 10.374C34.7688 9.318 34.9908 8.418 35.4348 7.674C35.8788 6.918 36.4668 6.342 37.1988 5.946C37.9308 5.538 38.7288 5.334 39.5928 5.334C40.3848 5.334 41.1048 5.532 41.7528 5.928C42.4008 6.312 42.9168 6.846 43.3008 7.53C43.6848 8.214 43.8768 9.012 43.8768 9.924L43.8588 10.716H36.6228C36.7308 11.568 37.0788 12.246 37.6668 12.75C38.2668 13.242 39.0228 13.488 39.9348 13.488C40.5948 13.488 41.1288 13.368 41.5368 13.128C41.9448 12.876 42.2808 12.636 42.5448 12.408L43.4628 13.758ZM39.5928 7.044C38.8848 7.044 38.2668 7.212 37.7388 7.548C37.2108 7.872 36.8628 8.436 36.6948 9.24H41.9868V9.114C41.9508 8.706 41.8128 8.346 41.5728 8.034C41.3448 7.722 41.0568 7.482 40.7088 7.314C40.3608 7.134 39.9888 7.044 39.5928 7.044ZM45.8917 15V1.68H47.7457V15H45.8917ZM59.1937 5.55V15H57.3217V13.542C57.0337 13.938 56.6077 14.31 56.0437 14.658C55.4797 15.006 54.8257 15.18 54.0817 15.18C53.2897 15.18 52.5637 14.97 51.9037 14.55C51.2557 14.13 50.7397 13.548 50.3557 12.804C49.9717 12.06 49.7797 11.208 49.7797 10.248C49.7797 9.288 49.9777 8.442 50.3737 7.71C50.7697 6.966 51.3157 6.39 52.0117 5.982C52.7077 5.562 53.4997 5.352 54.3877 5.352C55.0477 5.352 55.6237 5.496 56.1157 5.784C56.6197 6.072 57.0217 6.408 57.3217 6.792V5.55H59.1937ZM54.5137 13.47C55.0897 13.47 55.5937 13.332 56.0257 13.056C56.4577 12.768 56.7937 12.384 57.0337 11.904C57.2737 11.412 57.3937 10.86 57.3937 10.248C57.3937 9.648 57.2737 9.108 57.0337 8.628C56.7937 8.148 56.4577 7.77 56.0257 7.494C55.5937 7.206 55.0897 7.062 54.5137 7.062C53.9617 7.062 53.4697 7.2 53.0377 7.476C52.6057 7.752 52.2697 8.13 52.0297 8.61C51.7897 9.09 51.6697 9.636 51.6697 10.248C51.6697 10.86 51.7897 11.412 52.0297 11.904C52.2697 12.384 52.6057 12.768 53.0377 13.056C53.4697 13.332 53.9617 13.47 54.5137 13.47ZM57.5197 3.012L56.8357 3.606L54.6757 2.436L52.5157 3.606L51.8317 3.012L53.9017 0.977999H55.4497L57.5197 3.012ZM66.7323 5.352C67.5843 5.352 68.2443 5.526 68.7123 5.874C69.1803 6.222 69.5043 6.69 69.6843 7.278C69.8763 7.866 69.9723 8.52 69.9723 9.24V15H68.1183V9.366C68.1183 8.91 68.0583 8.502 67.9383 8.142C67.8183 7.782 67.6143 7.5 67.3263 7.296C67.0383 7.092 66.6363 7.008 66.1203 7.044C65.6403 7.044 65.2143 7.146 64.8423 7.35C64.4703 7.554 64.1763 7.824 63.9603 8.16C63.7443 8.496 63.6363 8.868 63.6363 9.276V15H61.7823V5.55H63.6363V7.044C63.9243 6.6 64.3443 6.21 64.8963 5.874C65.4483 5.526 66.0603 5.352 66.7323 5.352ZM81.3434 1.68V15H79.4894V13.668C79.2134 14.04 78.8054 14.388 78.2654 14.712C77.7254 15.024 77.1134 15.18 76.4294 15.18C75.5774 15.18 74.8094 14.97 74.1254 14.55C73.4414 14.13 72.9014 13.548 72.5054 12.804C72.1094 12.06 71.9114 11.214 71.9114 10.266C71.9114 9.306 72.1094 8.46 72.5054 7.728C72.9014 6.984 73.4354 6.402 74.1074 5.982C74.7794 5.562 75.5354 5.352 76.3754 5.352C77.0474 5.352 77.6534 5.49 78.1934 5.766C78.7454 6.042 79.1774 6.366 79.4894 6.738V1.68H81.3434ZM76.6814 13.578C77.2574 13.578 77.7614 13.434 78.1934 13.146C78.6254 12.858 78.9614 12.462 79.2014 11.958C79.4414 11.454 79.5614 10.89 79.5614 10.266C79.5614 9.63 79.4414 9.066 79.2014 8.574C78.9614 8.07 78.6254 7.674 78.1934 7.386C77.7614 7.098 77.2574 6.954 76.6814 6.954C76.1174 6.954 75.6194 7.098 75.1874 7.386C74.7554 7.674 74.4134 8.07 74.1614 8.574C73.9214 9.066 73.8014 9.63 73.8014 10.266C73.8014 10.89 73.9214 11.454 74.1614 11.958C74.4134 12.462 74.7554 12.858 75.1874 13.146C75.6194 13.434 76.1174 13.578 76.6814 13.578ZM85.1376 3.498C84.7176 3.498 84.4056 3.39 84.2016 3.174C83.9976 2.958 83.8956 2.676 83.8956 2.328C83.8956 2.028 83.9976 1.758 84.2016 1.518C84.4056 1.278 84.7176 1.158 85.1376 1.158C85.5576 1.158 85.8696 1.266 86.0736 1.482C86.2776 1.698 86.3796 1.98 86.3796 2.328C86.3796 2.628 86.2776 2.898 86.0736 3.138C85.8696 3.378 85.5576 3.498 85.1376 3.498ZM86.0916 15H84.2376V5.55H86.0916V15ZM97.7074 5.55V15H95.8354V13.542C95.5474 13.938 95.1214 14.31 94.5574 14.658C93.9934 15.006 93.3394 15.18 92.5954 15.18C91.8034 15.18 91.0774 14.97 90.4174 14.55C89.7694 14.13 89.2534 13.548 88.8694 12.804C88.4854 12.06 88.2934 11.208 88.2934 10.248C88.2934 9.288 88.4914 8.442 88.8874 7.71C89.2834 6.966 89.8294 6.39 90.5254 5.982C91.2214 5.562 92.0134 5.352 92.9014 5.352C93.5614 5.352 94.1374 5.496 94.6294 5.784C95.1334 6.072 95.5354 6.408 95.8354 6.792V5.55H97.7074ZM93.0274 13.47C93.6034 13.47 94.1074 13.332 94.5394 13.056C94.9714 12.768 95.3074 12.384 95.5474 11.904C95.7874 11.412 95.9074 10.86 95.9074 10.248C95.9074 9.648 95.7874 9.108 95.5474 8.628C95.3074 8.148 94.9714 7.77 94.5394 7.494C94.1074 7.206 93.6034 7.062 93.0274 7.062C92.4754 7.062 91.9834 7.2 91.5514 7.476C91.1194 7.752 90.7834 8.13 90.5434 8.61C90.3034 9.09 90.1834 9.636 90.1834 10.248C90.1834 10.86 90.3034 11.412 90.5434 11.904C90.7834 12.384 91.1194 12.768 91.5514 13.056C91.9834 13.332 92.4754 13.47 93.0274 13.47Z" fill="white"/>
</svg>
